<svg xmlns="http://www.w3.org/2000/svg" viewBox="0 0 1600 800" role="img" aria-labelledby="title">
  <title id="title">Bandiera dell'Eritrea</title>
  <rect width="1600" height="800" fill="#12ad2b"/>
  <polygon points="0,0 1600,400 0,800" fill="#ea0437"/>
  <polygon points="1600,400 0,800 1600,800" fill="#4189dd"/>

  <g fill="#ffc726" transform="translate(410 405) scale(1.38)">
    <path d="M0 138c-7-13-11-30-10-49 0-12 2-25 6-38-14 13-26 29-34 47-8 17-13 35-15 54 16 8 34 13 53 14v-28z"/>
    <path d="M0 116c-33-4-63-17-88-38-27-23-44-54-50-89-9 24-13 51-10 79 5 48 30 89 68 116 25 18 53 29 80 33v-101z"/>
    <path d="M0 72c-25-9-47-25-63-47-18-24-26-53-24-83-14 14-25 31-33 51-13 34-12 72 5 105 22 44 65 73 115 79v-105z"/>
    <path d="M0 25c-17-10-30-25-38-44-9-21-9-43-1-64-13 8-24 19-32 33-16 27-18 59-6 88 14 33 44 56 77 63v-76z"/>
    <path d="M0-17c-9-10-14-23-15-37-1-16 4-31 14-43-12 3-23 9-32 17-18 16-26 40-23 64 5 27 27 49 56 57v-58z"/>

    <path d="M0 138c7-13 11-30 10-49 0-12-2-25-6-38 14 13 26 29 34 47 8 17 13 35 15 54-16 8-34 13-53 14v-28z"/>
    <path d="M0 116c33-4 63-17 88-38 27-23 44-54 50-89 9 24 13 51 10 79-5 48-30 89-68 116-25 18-53 29-80 33v-101z"/>
    <path d="M0 72c25-9 47-25 63-47 18-24 26-53 24-83 14 14 25 31 33 51 13 34 12 72-5 105-22 44-65 73-115 79v-105z"/>
    <path d="M0 25c17-10 30-25 38-44 9-21 9-43 1-64 13 8 24 19 32 33 16 27 18 59 6 88-14 33-44 56-77 63v-76z"/>
    <path d="M0-17c9-10 14-23 15-37 1-16-4-31-14-43 12 3 23 9 32 17 18 16 26 40 23 64-5 27-27 49-56 57v-58z"/>

    <path d="M-8 152h16v-244H-8z"/>
    <path d="M0-84c-14-22-13-46 3-68 16 21 18 47-3 68z"/>
    <path d="M0-36c-32-4-58-22-75-52 35-5 64 13 75 52z"/>
    <path d="M0 8c-34 0-65-16-88-47 38-8 72 11 88 47z"/>
    <path d="M0 52c-34 2-66-11-93-39 38-11 74 5 93 39z"/>
    <path d="M0 96c-33 5-66-7-95-33 36-14 74-2 95 33z"/>
    <path d="M0-36c32-4 58-22 75-52-35-5-64 13-75 52z"/>
    <path d="M0 8c34 0 65-16 88-47-38-8-72 11-88 47z"/>
    <path d="M0 52c34 2 66-11 93-39-38-11-74 5-93 39z"/>
    <path d="M0 96c33 5 66-7 95-33-36-14-74-2-95 33z"/>
    <path d="M-27 179 0 145l27 34-20 2-7-14-7 14-20-2z"/>
  </g>
</svg>
